<svg xmlns="http://www.w3.org/2000/svg" xmlns:xlink="http://www.w3.org/1999/xlink" width="307" zoomAndPan="magnify" viewBox="0 0 230.25 60" height="80" preserveAspectRatio="xMidYMid meet" version="1.0"><defs><g/><clipPath id="c0f8ed5de7"><path d="M 131.964844 16 L 179 16 L 179 42 L 131.964844 42 Z M 131.964844 16 " clip-rule="nonzero"/></clipPath><clipPath id="001f4b9d3a"><path d="M 131.964844 11 L 229.148438 11 L 229.148438 59 L 131.964844 59 Z M 131.964844 11 " clip-rule="nonzero"/></clipPath></defs><g clip-path="url(#c0f8ed5de7)"><path fill="#3f3f3f" d="M 178.398438 16.5 L 131.964844 16.5 L 131.964844 18.609375 L 176.285156 18.609375 L 176.285156 39.71875 L 131.964844 39.71875 L 131.964844 41.828125 L 178.398438 41.828125 Z M 178.398438 16.5 " fill-opacity="1" fill-rule="nonzero"/></g><path fill="#3f3f3f" d="M 193.171875 22.832031 L 197.394531 22.832031 L 197.394531 24.941406 L 193.171875 24.941406 Z M 193.171875 22.832031 " fill-opacity="1" fill-rule="nonzero"/><path fill="#3f3f3f" d="M 188.949219 22.832031 L 191.0625 22.832031 L 191.0625 24.941406 L 188.949219 24.941406 Z M 188.949219 22.832031 " fill-opacity="1" fill-rule="nonzero"/><g clip-path="url(#001f4b9d3a)"><path fill="#3f3f3f" d="M 226.941406 37.605469 L 212.167969 33.386719 L 210.058594 27.054688 L 207.945312 27.054688 L 199.503906 18.609375 L 184.730469 18.609375 L 184.730469 43.9375 L 182.617188 43.9375 L 182.617188 16.5 C 182.617188 14.675781 181.515625 11.222656 177.34375 11.222656 L 177.34375 13.335938 C 180.320312 13.335938 180.503906 15.976562 180.507812 16.5 L 180.507812 43.9375 L 174.175781 43.9375 L 174.175781 50.269531 L 169.847656 50.269531 C 169.332031 46.695312 166.285156 43.9375 162.566406 43.9375 C 158.851562 43.9375 155.804688 46.695312 155.289062 50.269531 L 152.960938 50.269531 C 152.445312 46.695312 149.398438 43.9375 145.683594 43.9375 C 141.964844 43.9375 138.917969 46.695312 138.402344 50.269531 L 131.964844 50.269531 L 131.964844 52.382812 L 138.402344 52.382812 C 138.917969 55.953125 141.964844 58.714844 145.683594 58.714844 C 149.402344 58.714844 152.445312 55.953125 152.960938 52.382812 L 155.289062 52.382812 C 155.804688 55.953125 158.851562 58.714844 162.566406 58.714844 C 166.285156 58.714844 169.332031 55.953125 169.847656 52.382812 L 174.175781 52.382812 L 174.175781 54.492188 L 197.394531 54.492188 L 197.394531 52.382812 L 205.945312 52.382812 C 206.457031 55.953125 209.507812 58.714844 213.222656 58.714844 C 216.941406 58.714844 219.988281 55.953125 220.503906 52.382812 L 229.054688 52.382812 L 229.054688 46.050781 L 226.941406 46.050781 Z M 145.683594 56.601562 C 142.773438 56.601562 140.40625 54.238281 140.40625 51.324219 C 140.40625 48.414062 142.773438 46.050781 145.683594 46.050781 C 148.59375 46.050781 150.960938 48.414062 150.960938 51.324219 C 150.960938 54.238281 148.59375 56.601562 145.683594 56.601562 Z M 162.566406 56.601562 C 159.65625 56.601562 157.292969 54.238281 157.292969 51.324219 C 157.292969 48.414062 159.65625 46.050781 162.566406 46.050781 C 165.476562 46.050781 167.84375 48.414062 167.84375 51.324219 C 167.84375 54.238281 165.476562 56.601562 162.566406 56.601562 Z M 208.535156 29.164062 L 209.941406 33.386719 L 199.503906 33.386719 L 199.503906 29.164062 Z M 191.0625 52.382812 L 176.285156 52.382812 L 176.285156 46.050781 L 191.0625 46.050781 Z M 195.28125 52.382812 L 193.171875 52.382812 L 193.171875 46.050781 L 195.28125 46.050781 Z M 213.222656 56.601562 C 210.3125 56.601562 207.945312 54.238281 207.945312 51.324219 C 207.945312 48.414062 210.3125 46.050781 213.222656 46.050781 C 216.132812 46.050781 218.5 48.414062 218.5 51.324219 C 218.5 54.238281 216.132812 56.601562 213.222656 56.601562 Z M 224.832031 50.269531 L 220.503906 50.269531 C 219.988281 46.695312 216.941406 43.9375 213.222656 43.9375 C 209.507812 43.9375 206.457031 46.695312 205.945312 50.269531 L 197.394531 50.269531 L 197.394531 43.9375 L 186.839844 43.9375 L 186.839844 20.722656 L 198.628906 20.722656 L 204.960938 27.054688 L 197.394531 27.054688 L 197.394531 35.496094 L 211.871094 35.496094 L 224.832031 39.199219 Z M 224.832031 50.269531 " fill-opacity="1" fill-rule="nonzero"/></g><path fill="#3f3f3f" d="M 140.40625 20.722656 L 142.515625 20.722656 L 142.515625 22.832031 L 140.40625 22.832031 Z M 140.40625 20.722656 " fill-opacity="1" fill-rule="nonzero"/><path fill="#3f3f3f" d="M 144.628906 20.722656 L 174.175781 20.722656 L 174.175781 22.832031 L 144.628906 22.832031 Z M 144.628906 20.722656 " fill-opacity="1" fill-rule="nonzero"/><path fill="#3f3f3f" d="M 148.847656 51.324219 C 148.847656 51.746094 148.769531 52.148438 148.609375 52.539062 C 148.445312 52.925781 148.21875 53.269531 147.921875 53.566406 C 147.625 53.863281 147.28125 54.089844 146.894531 54.25 C 146.507812 54.410156 146.101562 54.492188 145.683594 54.492188 C 145.261719 54.492188 144.859375 54.410156 144.472656 54.25 C 144.082031 54.089844 143.742188 53.863281 143.445312 53.566406 C 143.148438 53.269531 142.917969 52.925781 142.757812 52.539062 C 142.597656 52.148438 142.515625 51.746094 142.515625 51.324219 C 142.515625 50.90625 142.597656 50.503906 142.757812 50.113281 C 142.917969 49.726562 143.148438 49.382812 143.445312 49.085938 C 143.742188 48.789062 144.082031 48.5625 144.472656 48.402344 C 144.859375 48.242188 145.261719 48.160156 145.683594 48.160156 C 146.101562 48.160156 146.507812 48.242188 146.894531 48.402344 C 147.28125 48.5625 147.625 48.789062 147.921875 49.085938 C 148.21875 49.382812 148.445312 49.726562 148.609375 50.113281 C 148.769531 50.503906 148.847656 50.90625 148.847656 51.324219 Z M 148.847656 51.324219 " fill-opacity="1" fill-rule="nonzero"/><path fill="#3f3f3f" d="M 165.734375 51.324219 C 165.734375 51.746094 165.652344 52.148438 165.492188 52.539062 C 165.332031 52.925781 165.101562 53.269531 164.804688 53.566406 C 164.507812 53.863281 164.167969 54.089844 163.78125 54.25 C 163.390625 54.410156 162.988281 54.492188 162.566406 54.492188 C 162.148438 54.492188 161.742188 54.410156 161.355469 54.25 C 160.96875 54.089844 160.625 53.863281 160.328125 53.566406 C 160.03125 53.269531 159.804688 52.925781 159.644531 52.539062 C 159.480469 52.148438 159.402344 51.746094 159.402344 51.324219 C 159.402344 50.90625 159.480469 50.503906 159.644531 50.113281 C 159.804688 49.726562 160.03125 49.382812 160.328125 49.085938 C 160.625 48.789062 160.96875 48.5625 161.355469 48.402344 C 161.742188 48.242188 162.148438 48.160156 162.566406 48.160156 C 162.988281 48.160156 163.390625 48.242188 163.78125 48.402344 C 164.167969 48.5625 164.507812 48.789062 164.804688 49.085938 C 165.101562 49.382812 165.332031 49.726562 165.492188 50.113281 C 165.652344 50.503906 165.734375 50.90625 165.734375 51.324219 Z M 165.734375 51.324219 " fill-opacity="1" fill-rule="nonzero"/><path fill="#3f3f3f" d="M 216.390625 51.324219 C 216.390625 51.746094 216.308594 52.148438 216.148438 52.539062 C 215.988281 52.925781 215.757812 53.269531 215.460938 53.566406 C 215.164062 53.863281 214.824219 54.089844 214.433594 54.25 C 214.046875 54.410156 213.644531 54.492188 213.222656 54.492188 C 212.804688 54.492188 212.398438 54.410156 212.011719 54.25 C 211.625 54.089844 211.28125 53.863281 210.984375 53.566406 C 210.6875 53.269531 210.460938 52.925781 210.296875 52.539062 C 210.136719 52.148438 210.058594 51.746094 210.058594 51.324219 C 210.058594 50.90625 210.136719 50.503906 210.296875 50.113281 C 210.460938 49.726562 210.6875 49.382812 210.984375 49.085938 C 211.28125 48.789062 211.625 48.5625 212.011719 48.402344 C 212.398438 48.242188 212.804688 48.160156 213.222656 48.160156 C 213.644531 48.160156 214.046875 48.242188 214.433594 48.402344 C 214.824219 48.5625 215.164062 48.789062 215.460938 49.085938 C 215.757812 49.382812 215.988281 49.726562 216.148438 50.113281 C 216.308594 50.503906 216.390625 50.90625 216.390625 51.324219 Z M 216.390625 51.324219 " fill-opacity="1" fill-rule="nonzero"/><g fill="#3f3f3f" fill-opacity="1"><g transform="translate(15.072262, 32.923536)"><g><path d="M 1.878906 -0.78125 L 2.050781 -0.246094 L 2.539062 0 L 3.003906 0.0234375 L 4.003906 -0.0507812 L 4.515625 0 L 5.25 0 L 6.007812 -0.246094 L 6.175781 -0.707031 L 6.226562 -1.222656 L 6.128906 -1.734375 L 6.203125 -2.785156 L 6.152344 -4.296875 L 6.371094 -4.785156 L 6.859375 -5.03125 L 7.300781 -5.03125 L 7.738281 -5.054688 L 8.351562 -4.859375 L 8.742188 -4.445312 L 9.375 -3.589844 L 9.546875 -3.125 L 10.230469 -1.90625 L 10.546875 -1.441406 L 10.765625 -1.027344 L 11.058594 -0.636719 L 11.546875 -0.195312 L 12.160156 -0.0507812 L 13.039062 0 L 13.574219 -0.0507812 L 14.0625 0 L 15.039062 0 L 15.578125 -0.0507812 L 16.089844 -0.171875 L 16.1875 -0.683594 L 15.871094 -1.292969 L 15.089844 -2.492188 L 14.867188 -2.90625 L 14.574219 -3.34375 L 14.332031 -3.785156 L 14.015625 -4.175781 L 13.28125 -5.445312 L 13.207031 -6.03125 L 13.476562 -6.542969 L 14.160156 -7.203125 L 14.453125 -7.617188 L 14.625 -8.082031 L 14.894531 -8.519531 L 15.0625 -8.9375 L 15.332031 -9.863281 L 15.355469 -11.792969 L 15.234375 -12.257812 L 15.160156 -12.71875 L 15.039062 -13.207031 L 14.378906 -14.550781 L 14.039062 -14.917969 L 13.820312 -15.285156 L 12.597656 -16.210938 L 11.742188 -16.652344 L 9.71875 -17.066406 L 9.105469 -17.117188 L 8.398438 -17.089844 L 7.863281 -17.117188 L 7.375 -17.066406 L 6.835938 -17.117188 L 6.421875 -17.066406 L 4.957031 -17.117188 L 4.492188 -17.042969 L 3.492188 -17.140625 L 3.027344 -17.066406 L 2.492188 -17.089844 L 2.027344 -16.871094 L 1.832031 -16.359375 L 1.757812 -9.523438 L 1.832031 -8.8125 L 1.832031 -7.59375 L 1.78125 -7.082031 L 1.757812 -6.152344 L 1.832031 -5.617188 L 1.757812 -4.613281 L 1.855469 -3.199219 L 1.808594 -2.6875 Z M 6.859375 -8.984375 L 6.445312 -9.203125 L 6.203125 -9.71875 L 6.128906 -12.453125 L 6.421875 -12.941406 L 6.910156 -13.183594 L 7.300781 -13.207031 L 8.644531 -13.183594 L 9.765625 -13.039062 L 10.523438 -12.574219 L 10.765625 -12.207031 L 10.9375 -11.816406 L 10.988281 -11.109375 L 10.914062 -10.449219 L 10.71875 -9.960938 L 10.449219 -9.546875 L 10.15625 -9.253906 L 9.789062 -9.082031 L 7.886719 -8.910156 L 7.398438 -8.984375 Z M 6.859375 -8.984375 "/></g></g></g><g fill="#3f3f3f" fill-opacity="1"><g transform="translate(31.990206, 32.923536)"><g><path d="M 0.316406 -0.660156 L 0.441406 -0.148438 L 0.929688 -0.0234375 L 3.078125 -0.0234375 L 3.710938 0.0507812 L 4.273438 -0.195312 L 4.710938 -0.636719 L 5.128906 -1.464844 L 5.542969 -1.929688 L 6.128906 -2.171875 L 6.617188 -2.125 L 7.984375 -2.148438 L 8.496094 -2.074219 L 9.058594 -2.148438 L 9.496094 -2.148438 L 10.011719 -2.101562 L 11.15625 -2.148438 L 11.964844 -1.878906 L 12.476562 -1.488281 L 12.597656 -1.050781 L 12.867188 -0.609375 L 13.28125 -0.21875 L 13.917969 0.0234375 L 14.355469 -0.0234375 L 15.210938 0.0507812 L 16.722656 0 L 17.164062 -0.148438 L 17.261719 -0.660156 L 17.117188 -1.269531 L 16.945312 -1.710938 L 16.625 -2.125 L 16.480469 -2.613281 L 16.234375 -2.980469 L 16.089844 -3.441406 L 15.675781 -4.320312 L 15.503906 -4.785156 L 15.257812 -5.199219 L 14.917969 -6.105469 L 14.648438 -6.496094 L 14.453125 -6.984375 L 14.234375 -7.398438 L 14.0625 -7.886719 L 13.84375 -8.253906 L 13.695312 -8.742188 L 13.429688 -9.179688 L 13.234375 -9.59375 L 12.988281 -10.011719 L 12.867188 -10.472656 L 12.378906 -11.328125 L 12.230469 -11.792969 L 11.792969 -12.71875 L 11.671875 -13.109375 L 11.304688 -13.964844 L 10.816406 -14.867188 L 10.425781 -15.796875 L 10.207031 -16.164062 L 10.058594 -16.625 L 9.621094 -17.089844 L 8.789062 -17.3125 L 8.007812 -17.066406 L 7.542969 -16.625 L 7.398438 -16.1875 L 6.347656 -13.988281 L 6.078125 -13.550781 L 4.710938 -10.472656 L 4.589844 -10.058594 L 4.320312 -9.621094 L 3.929688 -8.742188 L 3.566406 -8.105469 L 3.394531 -7.640625 L 3.050781 -7.007812 L 2.90625 -6.496094 L 2.6875 -6.105469 L 2.515625 -5.617188 L 1.832031 -4.347656 L 1.125 -2.5625 L 0.832031 -2.171875 L 0.609375 -1.683594 Z M 7.863281 -6.03125 L 7.398438 -6.226562 L 7.324219 -6.714844 L 8.300781 -8.9375 L 8.519531 -9.328125 L 8.839844 -9.570312 L 9.132812 -9.375 L 9.449219 -8.421875 L 9.71875 -8.007812 L 9.816406 -7.617188 L 10.058594 -7.128906 L 10.230469 -6.691406 L 10.179688 -6.25 L 9.765625 -6.054688 Z M 7.863281 -6.03125 "/></g></g></g><g fill="#3f3f3f" fill-opacity="1"><g transform="translate(49.713766, 32.923536)"><g><path d="M 1.78125 -0.683594 L 2.027344 -0.21875 L 2.785156 0.0507812 L 5.46875 0.0234375 L 5.957031 -0.21875 L 6.273438 -0.976562 L 6.25 -1.734375 L 6.300781 -2.246094 L 6.226562 -3.296875 L 6.25 -3.761719 L 6.226562 -4.222656 L 6.273438 -4.738281 L 6.496094 -5.25 L 7.226562 -5.492188 L 11.035156 -5.519531 L 11.5 -5.738281 L 11.769531 -6.226562 L 11.742188 -6.761719 L 11.792969 -8.226562 L 11.71875 -8.691406 L 11.476562 -9.203125 L 10.742188 -9.449219 L 7.03125 -9.449219 L 6.46875 -9.644531 L 6.203125 -10.082031 L 6.203125 -11.523438 L 6.273438 -12.035156 L 6.25 -12.453125 L 6.496094 -12.941406 L 7.203125 -13.183594 L 7.910156 -13.160156 L 8.617188 -13.207031 L 9.816406 -13.136719 L 10.304688 -13.183594 L 11.304688 -13.136719 L 11.792969 -13.207031 L 12.257812 -13.429688 L 12.425781 -13.917969 L 12.425781 -14.378906 L 12.476562 -14.867188 L 12.425781 -15.332031 L 12.476562 -15.84375 L 12.425781 -16.359375 L 12.183594 -16.820312 L 11.742188 -17.042969 L 11.15625 -17.117188 L 10.277344 -17.042969 L 9.765625 -17.066406 L 9.253906 -17.042969 L 8.789062 -17.089844 L 8.324219 -17.042969 L 2.492188 -17.042969 L 2.027344 -16.796875 L 1.757812 -16.332031 L 1.855469 -13.402344 L 1.808594 -12.941406 L 1.78125 -9.472656 L 1.855469 -9.035156 L 1.808594 -8.570312 L 1.808594 -8.082031 L 1.757812 -7.542969 L 1.855469 -6.789062 L 1.78125 -1.734375 L 1.832031 -1.171875 Z M 1.78125 -0.683594 "/></g></g></g><g fill="#3f3f3f" fill-opacity="1"><g transform="translate(63.018644, 32.923536)"><g><path d="M 4.6875 -0.757812 L 4.882812 -0.246094 L 5.394531 0 L 5.859375 -0.0507812 L 6.347656 0 L 6.8125 -0.0507812 L 8.324219 -0.0507812 L 8.8125 -0.246094 L 9.007812 -0.734375 L 8.984375 -1.195312 L 9.035156 -1.757812 L 9.007812 -2.734375 L 8.9375 -3.148438 L 9.007812 -3.664062 L 9.058594 -5.152344 L 9.007812 -5.589844 L 9.082031 -6.617188 L 8.984375 -11.476562 L 9.058594 -11.964844 L 9.007812 -12.5 L 9.203125 -12.941406 L 9.742188 -13.160156 L 10.15625 -13.183594 L 10.644531 -13.160156 L 11.085938 -13.207031 L 12.425781 -13.183594 L 12.988281 -13.402344 L 13.234375 -13.890625 L 13.183594 -14.40625 L 13.234375 -16.40625 L 12.988281 -16.894531 L 12.5 -17.140625 L 11.914062 -17.089844 L 11.523438 -17.140625 L 11.058594 -17.140625 L 10.523438 -17.066406 L 10.035156 -17.066406 L 9.546875 -17.117188 L 9.058594 -17.117188 L 8.496094 -17.042969 L 1.222656 -17.089844 L 0.683594 -16.847656 L 0.441406 -16.359375 L 0.414062 -13.917969 L 0.683594 -13.378906 L 1.171875 -13.136719 L 1.808594 -13.207031 L 3.980469 -13.183594 L 4.417969 -12.914062 L 4.664062 -12.453125 L 4.738281 -9.765625 L 4.664062 -9.007812 L 4.710938 -8.546875 L 4.664062 -8.058594 L 4.664062 -7.082031 L 4.738281 -6.371094 L 4.640625 -5.640625 L 4.664062 -5.152344 L 4.640625 -4.640625 L 4.710938 -3.148438 L 4.664062 -2.660156 Z M 4.6875 -0.757812 "/></g></g></g><g fill="#3f3f3f" fill-opacity="1"><g transform="translate(76.665297, 32.923536)"><g><path d="M 0.316406 -0.660156 L 0.441406 -0.148438 L 0.929688 -0.0234375 L 3.078125 -0.0234375 L 3.710938 0.0507812 L 4.273438 -0.195312 L 4.710938 -0.636719 L 5.128906 -1.464844 L 5.542969 -1.929688 L 6.128906 -2.171875 L 6.617188 -2.125 L 7.984375 -2.148438 L 8.496094 -2.074219 L 9.058594 -2.148438 L 9.496094 -2.148438 L 10.011719 -2.101562 L 11.15625 -2.148438 L 11.964844 -1.878906 L 12.476562 -1.488281 L 12.597656 -1.050781 L 12.867188 -0.609375 L 13.28125 -0.21875 L 13.917969 0.0234375 L 14.355469 -0.0234375 L 15.210938 0.0507812 L 16.722656 0 L 17.164062 -0.148438 L 17.261719 -0.660156 L 17.117188 -1.269531 L 16.945312 -1.710938 L 16.625 -2.125 L 16.480469 -2.613281 L 16.234375 -2.980469 L 16.089844 -3.441406 L 15.675781 -4.320312 L 15.503906 -4.785156 L 15.257812 -5.199219 L 14.917969 -6.105469 L 14.648438 -6.496094 L 14.453125 -6.984375 L 14.234375 -7.398438 L 14.0625 -7.886719 L 13.84375 -8.253906 L 13.695312 -8.742188 L 13.429688 -9.179688 L 13.234375 -9.59375 L 12.988281 -10.011719 L 12.867188 -10.472656 L 12.378906 -11.328125 L 12.230469 -11.792969 L 11.792969 -12.71875 L 11.671875 -13.109375 L 11.304688 -13.964844 L 10.816406 -14.867188 L 10.425781 -15.796875 L 10.207031 -16.164062 L 10.058594 -16.625 L 9.621094 -17.089844 L 8.789062 -17.3125 L 8.007812 -17.066406 L 7.542969 -16.625 L 7.398438 -16.1875 L 6.347656 -13.988281 L 6.078125 -13.550781 L 4.710938 -10.472656 L 4.589844 -10.058594 L 4.320312 -9.621094 L 3.929688 -8.742188 L 3.566406 -8.105469 L 3.394531 -7.640625 L 3.050781 -7.007812 L 2.90625 -6.496094 L 2.6875 -6.105469 L 2.515625 -5.617188 L 1.832031 -4.347656 L 1.125 -2.5625 L 0.832031 -2.171875 L 0.609375 -1.683594 Z M 7.863281 -6.03125 L 7.398438 -6.226562 L 7.324219 -6.714844 L 8.300781 -8.9375 L 8.519531 -9.328125 L 8.839844 -9.570312 L 9.132812 -9.375 L 9.449219 -8.421875 L 9.71875 -8.007812 L 9.816406 -7.617188 L 10.058594 -7.128906 L 10.230469 -6.691406 L 10.179688 -6.25 L 9.765625 -6.054688 Z M 7.863281 -6.03125 "/></g></g></g><g fill="#3f3f3f" fill-opacity="1"><g transform="translate(94.388857, 32.923536)"><g><path d="M 0.316406 -0.660156 L 0.441406 -0.148438 L 0.929688 -0.0234375 L 3.078125 -0.0234375 L 3.710938 0.0507812 L 4.273438 -0.195312 L 4.710938 -0.636719 L 5.128906 -1.464844 L 5.542969 -1.929688 L 6.128906 -2.171875 L 6.617188 -2.125 L 7.984375 -2.148438 L 8.496094 -2.074219 L 9.058594 -2.148438 L 9.496094 -2.148438 L 10.011719 -2.101562 L 11.15625 -2.148438 L 11.964844 -1.878906 L 12.476562 -1.488281 L 12.597656 -1.050781 L 12.867188 -0.609375 L 13.28125 -0.21875 L 13.917969 0.0234375 L 14.355469 -0.0234375 L 15.210938 0.0507812 L 16.722656 0 L 17.164062 -0.148438 L 17.261719 -0.660156 L 17.117188 -1.269531 L 16.945312 -1.710938 L 16.625 -2.125 L 16.480469 -2.613281 L 16.234375 -2.980469 L 16.089844 -3.441406 L 15.675781 -4.320312 L 15.503906 -4.785156 L 15.257812 -5.199219 L 14.917969 -6.105469 L 14.648438 -6.496094 L 14.453125 -6.984375 L 14.234375 -7.398438 L 14.0625 -7.886719 L 13.84375 -8.253906 L 13.695312 -8.742188 L 13.429688 -9.179688 L 13.234375 -9.59375 L 12.988281 -10.011719 L 12.867188 -10.472656 L 12.378906 -11.328125 L 12.230469 -11.792969 L 11.792969 -12.71875 L 11.671875 -13.109375 L 11.304688 -13.964844 L 10.816406 -14.867188 L 10.425781 -15.796875 L 10.207031 -16.164062 L 10.058594 -16.625 L 9.621094 -17.089844 L 8.789062 -17.3125 L 8.007812 -17.066406 L 7.542969 -16.625 L 7.398438 -16.1875 L 6.347656 -13.988281 L 6.078125 -13.550781 L 4.710938 -10.472656 L 4.589844 -10.058594 L 4.320312 -9.621094 L 3.929688 -8.742188 L 3.566406 -8.105469 L 3.394531 -7.640625 L 3.050781 -7.007812 L 2.90625 -6.496094 L 2.6875 -6.105469 L 2.515625 -5.617188 L 1.832031 -4.347656 L 1.125 -2.5625 L 0.832031 -2.171875 L 0.609375 -1.683594 Z M 7.863281 -6.03125 L 7.398438 -6.226562 L 7.324219 -6.714844 L 8.300781 -8.9375 L 8.519531 -9.328125 L 8.839844 -9.570312 L 9.132812 -9.375 L 9.449219 -8.421875 L 9.71875 -8.007812 L 9.816406 -7.617188 L 10.058594 -7.128906 L 10.230469 -6.691406 L 10.179688 -6.25 L 9.765625 -6.054688 Z M 7.863281 -6.03125 "/></g></g></g><g fill="#3f3f3f" fill-opacity="1"><g transform="translate(112.112416, 32.923536)"><g><path d="M 1.878906 -0.78125 L 2.050781 -0.246094 L 2.539062 0 L 3.003906 0.0234375 L 4.003906 -0.0507812 L 4.515625 0 L 5.25 0 L 6.007812 -0.246094 L 6.175781 -0.707031 L 6.226562 -1.222656 L 6.128906 -1.734375 L 6.203125 -2.785156 L 6.152344 -4.296875 L 6.371094 -4.785156 L 6.859375 -5.03125 L 7.300781 -5.03125 L 7.738281 -5.054688 L 8.351562 -4.859375 L 8.742188 -4.445312 L 9.375 -3.589844 L 9.546875 -3.125 L 10.230469 -1.90625 L 10.546875 -1.441406 L 10.765625 -1.027344 L 11.058594 -0.636719 L 11.546875 -0.195312 L 12.160156 -0.0507812 L 13.039062 0 L 13.574219 -0.0507812 L 14.0625 0 L 15.039062 0 L 15.578125 -0.0507812 L 16.089844 -0.171875 L 16.1875 -0.683594 L 15.871094 -1.292969 L 15.089844 -2.492188 L 14.867188 -2.90625 L 14.574219 -3.34375 L 14.332031 -3.785156 L 14.015625 -4.175781 L 13.28125 -5.445312 L 13.207031 -6.03125 L 13.476562 -6.542969 L 14.160156 -7.203125 L 14.453125 -7.617188 L 14.625 -8.082031 L 14.894531 -8.519531 L 15.0625 -8.9375 L 15.332031 -9.863281 L 15.355469 -11.792969 L 15.234375 -12.257812 L 15.160156 -12.71875 L 15.039062 -13.207031 L 14.378906 -14.550781 L 14.039062 -14.917969 L 13.820312 -15.285156 L 12.597656 -16.210938 L 11.742188 -16.652344 L 9.71875 -17.066406 L 9.105469 -17.117188 L 8.398438 -17.089844 L 7.863281 -17.117188 L 7.375 -17.066406 L 6.835938 -17.117188 L 6.421875 -17.066406 L 4.957031 -17.117188 L 4.492188 -17.042969 L 3.492188 -17.140625 L 3.027344 -17.066406 L 2.492188 -17.089844 L 2.027344 -16.871094 L 1.832031 -16.359375 L 1.757812 -9.523438 L 1.832031 -8.8125 L 1.832031 -7.59375 L 1.78125 -7.082031 L 1.757812 -6.152344 L 1.832031 -5.617188 L 1.757812 -4.613281 L 1.855469 -3.199219 L 1.808594 -2.6875 Z M 6.859375 -8.984375 L 6.445312 -9.203125 L 6.203125 -9.71875 L 6.128906 -12.453125 L 6.421875 -12.941406 L 6.910156 -13.183594 L 7.300781 -13.207031 L 8.644531 -13.183594 L 9.765625 -13.039062 L 10.523438 -12.574219 L 10.765625 -12.207031 L 10.9375 -11.816406 L 10.988281 -11.109375 L 10.914062 -10.449219 L 10.71875 -9.960938 L 10.449219 -9.546875 L 10.15625 -9.253906 L 9.789062 -9.082031 L 7.886719 -8.910156 L 7.398438 -8.984375 Z M 6.859375 -8.984375 "/></g></g></g><g fill="#3f3f3f" fill-opacity="1"><g transform="translate(82.698241, 50.25011)"><g><path d="M 0.859375 -0.359375 L 0.953125 -0.117188 L 1.199219 -0.0234375 L 1.429688 0 L 2.117188 -0.0117188 L 2.371094 0.0117188 L 2.617188 0.0117188 L 2.847656 -0.117188 L 2.953125 -0.359375 L 2.964844 -0.824219 L 2.941406 -1.046875 L 2.976562 -1.253906 L 2.953125 -1.511719 L 2.953125 -1.753906 L 3.035156 -1.953125 L 3.347656 -2.070312 L 3.605469 -2.105469 L 3.953125 -2.070312 L 4.558594 -2.082031 L 5.035156 -2.171875 L 5.707031 -2.371094 L 6.101562 -2.617188 L 6.289062 -2.753906 L 6.636719 -3.09375 L 7.007812 -3.648438 L 7.113281 -3.859375 L 7.195312 -4.070312 L 7.300781 -4.546875 L 7.324219 -4.753906 L 7.335938 -5.441406 L 7.125 -6.347656 L 6.894531 -6.765625 L 6.742188 -6.964844 L 6.589844 -7.125 L 6.464844 -7.300781 L 6.265625 -7.476562 L 5.917969 -7.707031 L 5.5 -7.929688 L 5.253906 -7.972656 L 5.023438 -8.066406 L 4.8125 -8.113281 L 1.335938 -8.125 L 1.023438 -8.019531 L 0.90625 -7.800781 L 0.882812 -7.554688 L 0.882812 -7.078125 L 0.847656 -6.871094 L 0.847656 -6.648438 L 0.882812 -6.40625 L 0.882812 -5.21875 L 0.859375 -4.988281 L 0.882812 -4.777344 L 0.859375 -4.523438 L 0.894531 -4.046875 L 0.847656 -3.730469 L 0.882812 -3.382812 L 0.859375 -3.160156 L 0.859375 -2.671875 L 0.894531 -2.453125 L 0.859375 -1.988281 L 0.894531 -1.253906 L 0.835938 -1.023438 L 0.882812 -0.800781 L 0.847656 -0.582031 Z M 3.324219 -3.964844 L 3.105469 -4.070312 L 2.964844 -4.300781 L 2.941406 -5.917969 L 3.082031 -6.171875 L 3.3125 -6.265625 L 3.605469 -6.289062 L 4.535156 -6.242188 L 4.730469 -6.136719 L 4.90625 -6.011719 L 5.089844 -5.835938 L 5.207031 -5.636719 L 5.3125 -5.089844 L 5.183594 -4.558594 L 4.917969 -4.230469 L 4.730469 -4.101562 L 4.546875 -4 L 3.59375 -3.941406 Z M 3.324219 -3.964844 "/></g></g></g><g fill="#3f3f3f" fill-opacity="1"><g transform="translate(90.345679, 50.25011)"><g><path d="M 3.277344 -0.210938 L 3.464844 0 L 3.742188 0.105469 L 3.976562 0.128906 L 4.289062 -0.0117188 L 4.488281 -0.199219 L 4.558594 -0.417969 L 4.753906 -0.871094 L 4.859375 -1.09375 L 4.976562 -1.289062 L 5.160156 -1.707031 L 5.230469 -1.917969 L 5.929688 -3.40625 L 6.066406 -3.859375 L 6.3125 -4.277344 L 6.441406 -4.71875 L 6.566406 -4.953125 L 6.625 -5.148438 L 6.683594 -5.371094 L 6.847656 -5.578125 L 6.90625 -5.800781 L 7.054688 -5.976562 L 7.230469 -6.429688 L 7.289062 -6.636719 L 7.417969 -6.835938 L 7.496094 -7.066406 L 7.613281 -7.289062 L 7.660156 -7.484375 L 7.777344 -7.765625 L 7.707031 -8.054688 L 7.507812 -8.125 L 6.136719 -8.125 L 5.871094 -8.03125 L 5.660156 -7.8125 L 5.601562 -7.601562 L 4.21875 -4.195312 L 4.101562 -3.976562 L 4.046875 -3.765625 L 3.90625 -3.558594 L 3.765625 -3.535156 L 3.671875 -3.742188 L 3.523438 -4.183594 L 3.429688 -4.394531 L 3.359375 -4.625 L 3.277344 -4.8125 L 3.148438 -5.023438 L 3.011719 -5.488281 L 2.90625 -5.671875 L 2.824219 -5.882812 L 2.777344 -6.113281 L 2.371094 -6.953125 L 2.335938 -7.171875 L 2.21875 -7.394531 L 2.140625 -7.601562 L 2.035156 -7.789062 L 1.835938 -8.019531 L 1.570312 -8.113281 L 0.917969 -8.148438 L 0.722656 -8.125 L 0.511719 -8.148438 L 0.265625 -8.136719 L 0.0234375 -8.03125 L 0 -7.777344 L 0.046875 -7.496094 L 0.152344 -7.289062 L 0.324219 -6.847656 L 0.429688 -6.636719 L 0.5 -6.429688 L 0.628906 -6.207031 L 0.8125 -5.753906 L 0.929688 -5.546875 L 1.277344 -4.695312 L 1.394531 -4.511719 L 2.164062 -2.777344 L 2.21875 -2.582031 L 2.417969 -2.164062 L 2.488281 -1.941406 L 2.789062 -1.265625 L 2.90625 -1.09375 L 2.964844 -0.847656 Z M 3.277344 -0.210938 "/></g></g></g><g fill="#3f3f3f" fill-opacity="1"><g transform="translate(98.179072, 50.25011)"><g><path d="M 2.230469 -0.359375 L 2.324219 -0.117188 L 2.570312 0 L 2.789062 -0.0234375 L 3.023438 0 L 3.242188 -0.0234375 L 3.964844 -0.0234375 L 4.195312 -0.117188 L 4.289062 -0.347656 L 4.277344 -0.570312 L 4.300781 -0.835938 L 4.289062 -1.300781 L 4.253906 -1.5 L 4.289062 -1.742188 L 4.3125 -2.453125 L 4.289062 -2.660156 L 4.324219 -3.148438 L 4.277344 -5.464844 L 4.3125 -5.695312 L 4.289062 -5.953125 L 4.382812 -6.160156 L 4.636719 -6.265625 L 4.835938 -6.277344 L 5.066406 -6.265625 L 5.277344 -6.289062 L 5.917969 -6.277344 L 6.183594 -6.382812 L 6.300781 -6.613281 L 6.277344 -6.859375 L 6.300781 -7.8125 L 6.183594 -8.042969 L 5.953125 -8.160156 L 5.671875 -8.136719 L 5.488281 -8.160156 L 5.265625 -8.160156 L 5.011719 -8.125 L 4.777344 -8.125 L 4.546875 -8.148438 L 4.3125 -8.148438 L 4.046875 -8.113281 L 0.582031 -8.136719 L 0.324219 -8.019531 L 0.210938 -7.789062 L 0.199219 -6.625 L 0.324219 -6.371094 L 0.558594 -6.253906 L 0.859375 -6.289062 L 1.894531 -6.277344 L 2.105469 -6.148438 L 2.21875 -5.929688 L 2.253906 -4.648438 L 2.21875 -4.289062 L 2.242188 -4.070312 L 2.21875 -3.835938 L 2.21875 -3.371094 L 2.253906 -3.035156 L 2.207031 -2.683594 L 2.21875 -2.453125 L 2.207031 -2.207031 L 2.242188 -1.5 L 2.21875 -1.265625 Z M 2.230469 -0.359375 "/></g></g></g><g fill="#3f3f3f" fill-opacity="1"><g transform="translate(104.675904, 50.25011)"><g/></g></g><g fill="#3f3f3f" fill-opacity="1"><g transform="translate(107.825529, 50.25011)"><g><path d="M 0.871094 -0.335938 L 0.976562 -0.128906 L 1.347656 0.0117188 L 5.464844 -0.0117188 L 5.789062 -0.128906 L 5.917969 -0.335938 L 5.894531 -0.59375 L 5.90625 -0.824219 L 5.929688 -1.035156 L 5.894531 -1.289062 L 5.929688 -1.511719 L 5.777344 -1.765625 L 5.589844 -1.882812 L 5.335938 -1.847656 L 3.289062 -1.871094 L 3.046875 -1.976562 L 2.976562 -2.230469 L 2.988281 -2.660156 L 2.953125 -2.882812 L 2.964844 -3.136719 L 2.941406 -3.371094 L 2.964844 -3.617188 L 2.953125 -4.195312 L 2.988281 -4.523438 L 2.953125 -4.777344 L 2.988281 -5.023438 L 2.953125 -6.835938 L 2.976562 -7.089844 L 2.953125 -7.660156 L 2.835938 -8.007812 L 2.535156 -8.148438 L 1.324219 -8.125 L 0.988281 -7.996094 L 0.835938 -7.683594 L 0.90625 -7.078125 L 0.882812 -6.859375 L 0.847656 -6.613281 L 0.882812 -6.382812 L 0.90625 -6.160156 L 0.871094 -5.90625 L 0.882812 -5.683594 L 0.859375 -5.453125 L 0.894531 -5.207031 L 0.859375 -5 L 0.882812 -4.765625 L 0.847656 -4.546875 L 0.882812 -4.046875 L 0.847656 -3.824219 L 0.882812 -3.359375 L 0.847656 -3.128906 L 0.859375 -2.660156 L 0.882812 -2.453125 L 0.871094 -1.035156 L 0.894531 -0.800781 L 0.847656 -0.582031 Z M 0.871094 -0.335938 "/></g></g></g><g fill="#3f3f3f" fill-opacity="1"><g transform="translate(114.078298, 50.25011)"><g><path d="M 2.230469 -0.359375 L 2.324219 -0.117188 L 2.570312 0 L 2.789062 -0.0234375 L 3.023438 0 L 3.242188 -0.0234375 L 3.964844 -0.0234375 L 4.195312 -0.117188 L 4.289062 -0.347656 L 4.277344 -0.570312 L 4.300781 -0.835938 L 4.289062 -1.300781 L 4.253906 -1.5 L 4.289062 -1.742188 L 4.3125 -2.453125 L 4.289062 -2.660156 L 4.324219 -3.148438 L 4.277344 -5.464844 L 4.3125 -5.695312 L 4.289062 -5.953125 L 4.382812 -6.160156 L 4.636719 -6.265625 L 4.835938 -6.277344 L 5.066406 -6.265625 L 5.277344 -6.289062 L 5.917969 -6.277344 L 6.183594 -6.382812 L 6.300781 -6.613281 L 6.277344 -6.859375 L 6.300781 -7.8125 L 6.183594 -8.042969 L 5.953125 -8.160156 L 5.671875 -8.136719 L 5.488281 -8.160156 L 5.265625 -8.160156 L 5.011719 -8.125 L 4.777344 -8.125 L 4.546875 -8.148438 L 4.3125 -8.148438 L 4.046875 -8.113281 L 0.582031 -8.136719 L 0.324219 -8.019531 L 0.210938 -7.789062 L 0.199219 -6.625 L 0.324219 -6.371094 L 0.558594 -6.253906 L 0.859375 -6.289062 L 1.894531 -6.277344 L 2.105469 -6.148438 L 2.21875 -5.929688 L 2.253906 -4.648438 L 2.21875 -4.289062 L 2.242188 -4.070312 L 2.21875 -3.835938 L 2.21875 -3.371094 L 2.253906 -3.035156 L 2.207031 -2.683594 L 2.21875 -2.453125 L 2.207031 -2.207031 L 2.242188 -1.5 L 2.21875 -1.265625 Z M 2.230469 -0.359375 "/></g></g></g><g fill="#3f3f3f" fill-opacity="1"><g transform="translate(120.575129, 50.25011)"><g><path d="M 0.871094 -0.359375 L 1.011719 -0.105469 L 1.199219 0 L 1.464844 0 L 1.707031 0.0351562 L 1.941406 0.0351562 L 2.183594 0 L 4.277344 -0.0117188 L 5.023438 -0.117188 L 5.695312 -0.324219 L 6.683594 -0.988281 L 7.148438 -1.523438 L 7.507812 -2.105469 L 7.566406 -2.324219 L 7.683594 -2.546875 L 7.730469 -2.777344 L 7.8125 -2.988281 L 7.847656 -3.230469 L 7.90625 -3.476562 L 7.894531 -3.671875 L 7.941406 -4.417969 L 7.765625 -5.078125 L 7.742188 -5.324219 L 7.683594 -5.535156 L 7.507812 -6 L 7.242188 -6.394531 L 7.148438 -6.589844 L 6.847656 -6.953125 L 6.648438 -7.101562 L 6.324219 -7.417969 L 5.894531 -7.683594 L 5.660156 -7.800781 L 5.023438 -8.007812 L 4.546875 -8.101562 L 2.894531 -8.113281 L 2.660156 -8.136719 L 1.917969 -8.113281 L 1.6875 -8.136719 L 1.476562 -8.125 L 1.230469 -8.136719 L 1.023438 -8.007812 L 0.847656 -7.789062 L 0.847656 -7.3125 L 0.871094 -7.078125 L 0.859375 -6.847656 L 0.882812 -6.40625 L 0.847656 -6.148438 L 0.882812 -5.917969 L 0.847656 -5.683594 L 0.894531 -4.753906 L 0.859375 -4.3125 L 0.894531 -3.8125 L 0.859375 -3.59375 L 0.894531 -3.347656 L 0.859375 -2.894531 L 0.882812 -1.964844 L 0.859375 -1.730469 L 0.894531 -0.800781 Z M 3.335938 -1.871094 L 3.058594 -1.976562 L 2.953125 -2.230469 L 2.976562 -2.464844 L 2.929688 -2.671875 L 2.964844 -2.90625 L 2.964844 -5.894531 L 3.105469 -6.101562 L 3.441406 -6.230469 L 3.683594 -6.21875 L 3.929688 -6.230469 L 4.277344 -6.207031 L 4.742188 -6.066406 L 5.136719 -5.8125 L 5.429688 -5.488281 L 5.554688 -5.265625 L 5.707031 -5.078125 L 5.847656 -4.394531 L 5.882812 -4.035156 L 5.824219 -3.464844 L 5.753906 -3.242188 L 5.578125 -2.824219 L 5.429688 -2.617188 L 5.277344 -2.453125 L 5.136719 -2.265625 L 4.953125 -2.152344 L 4.71875 -2.035156 L 4.300781 -1.917969 Z M 3.335938 -1.871094 "/></g></g></g></svg>