<svg xmlns="http://www.w3.org/2000/svg" xmlns:xlink="http://www.w3.org/1999/xlink" width="311" zoomAndPan="magnify" viewBox="0 0 233.25 58.499998" height="78" preserveAspectRatio="xMidYMid meet" version="1.0"><defs><g/><clipPath id="1ac72c6a41"><path d="M 0.617188 0 L 231.890625 0 L 231.890625 58.003906 L 0.617188 58.003906 Z M 0.617188 0 " clip-rule="nonzero"/></clipPath><clipPath id="d72d7d4580"><path d="M 135.1875 12 L 182 12 L 182 39 L 135.1875 39 Z M 135.1875 12 " clip-rule="nonzero"/></clipPath><clipPath id="93482886be"><path d="M 135.1875 7.0625 L 231.863281 7.0625 L 231.863281 55 L 135.1875 55 Z M 135.1875 7.0625 " clip-rule="nonzero"/></clipPath></defs><g clip-path="url(#1ac72c6a41)"><path fill="#ffffff" d="M 0.617188 0 L 231.890625 0 L 231.890625 58.003906 L 0.617188 58.003906 Z M 0.617188 0 " fill-opacity="1" fill-rule="nonzero"/></g><g clip-path="url(#d72d7d4580)"><path fill="#ffffff" d="M 181.378906 12.835938 L 135.1875 12.835938 L 135.1875 14.933594 L 179.28125 14.933594 L 179.28125 35.929688 L 135.1875 35.929688 L 135.1875 38.03125 L 181.378906 38.03125 Z M 181.378906 12.835938 " fill-opacity="1" fill-rule="nonzero"/></g><path fill="#ffffff" d="M 196.078125 19.132812 L 200.277344 19.132812 L 200.277344 21.234375 L 196.078125 21.234375 Z M 196.078125 19.132812 " fill-opacity="1" fill-rule="nonzero"/><path fill="#ffffff" d="M 191.878906 19.132812 L 193.976562 19.132812 L 193.976562 21.234375 L 191.878906 21.234375 Z M 191.878906 19.132812 " fill-opacity="1" fill-rule="nonzero"/><g clip-path="url(#93482886be)"><path fill="#ffffff" d="M 229.671875 33.832031 L 214.972656 29.632812 L 212.875 23.332031 L 210.773438 23.332031 L 202.375 14.933594 L 187.679688 14.933594 L 187.679688 40.128906 L 185.578125 40.128906 L 185.578125 12.835938 C 185.578125 11.023438 184.484375 7.585938 180.328125 7.585938 L 180.328125 9.6875 C 183.292969 9.6875 183.472656 12.316406 183.480469 12.835938 L 183.480469 40.128906 L 177.179688 40.128906 L 177.179688 46.429688 L 172.875 46.429688 C 172.363281 42.871094 169.332031 40.128906 165.632812 40.128906 C 161.933594 40.128906 158.902344 42.871094 158.390625 46.429688 L 156.078125 46.429688 C 155.566406 42.871094 152.535156 40.128906 148.835938 40.128906 C 145.140625 40.128906 142.105469 42.871094 141.59375 46.429688 L 135.1875 46.429688 L 135.1875 48.527344 L 141.59375 48.527344 C 142.105469 52.082031 145.136719 54.828125 148.835938 54.828125 C 152.535156 54.828125 155.566406 52.082031 156.078125 48.527344 L 158.390625 48.527344 C 158.902344 52.082031 161.933594 54.828125 165.632812 54.828125 C 169.332031 54.828125 172.363281 52.082031 172.875 48.527344 L 177.179688 48.527344 L 177.179688 50.628906 L 200.277344 50.628906 L 200.277344 48.527344 L 208.78125 48.527344 C 209.292969 52.082031 212.324219 54.828125 216.023438 54.828125 C 219.71875 54.828125 222.75 52.082031 223.265625 48.527344 L 231.769531 48.527344 L 231.769531 42.230469 L 229.671875 42.230469 Z M 148.835938 52.726562 C 145.941406 52.726562 143.585938 50.375 143.585938 47.480469 C 143.585938 44.582031 145.941406 42.230469 148.835938 42.230469 C 151.730469 42.230469 154.085938 44.582031 154.085938 47.480469 C 154.085938 50.375 151.730469 52.726562 148.835938 52.726562 Z M 165.632812 52.726562 C 162.738281 52.726562 160.382812 50.375 160.382812 47.480469 C 160.382812 44.582031 162.738281 42.230469 165.632812 42.230469 C 168.527344 42.230469 170.882812 44.582031 170.882812 47.480469 C 170.882812 50.375 168.527344 52.726562 165.632812 52.726562 Z M 211.359375 25.433594 L 212.757812 29.632812 L 202.375 29.632812 L 202.375 25.433594 Z M 193.976562 48.527344 L 179.28125 48.527344 L 179.28125 42.230469 L 193.976562 42.230469 Z M 198.175781 48.527344 L 196.078125 48.527344 L 196.078125 42.230469 L 198.175781 42.230469 Z M 216.023438 52.726562 C 213.128906 52.726562 210.773438 50.375 210.773438 47.480469 C 210.773438 44.582031 213.128906 42.230469 216.023438 42.230469 C 218.917969 42.230469 221.273438 44.582031 221.273438 47.480469 C 221.273438 50.375 218.917969 52.726562 216.023438 52.726562 Z M 227.570312 46.429688 L 223.265625 46.429688 C 222.75 42.871094 219.71875 40.128906 216.023438 40.128906 C 212.324219 40.128906 209.292969 42.871094 208.78125 46.429688 L 200.277344 46.429688 L 200.277344 40.128906 L 189.777344 40.128906 L 189.777344 17.035156 L 201.507812 17.035156 L 207.804688 23.332031 L 200.277344 23.332031 L 200.277344 31.730469 L 214.679688 31.730469 L 227.570312 35.414062 Z M 227.570312 46.429688 " fill-opacity="1" fill-rule="nonzero"/></g><path fill="#ffffff" d="M 143.585938 17.035156 L 145.6875 17.035156 L 145.6875 19.132812 L 143.585938 19.132812 Z M 143.585938 17.035156 " fill-opacity="1" fill-rule="nonzero"/><path fill="#ffffff" d="M 147.785156 17.035156 L 177.179688 17.035156 L 177.179688 19.132812 L 147.785156 19.132812 Z M 147.785156 17.035156 " fill-opacity="1" fill-rule="nonzero"/><path fill="#ffffff" d="M 151.984375 47.480469 C 151.984375 47.898438 151.90625 48.296875 151.746094 48.683594 C 151.585938 49.070312 151.359375 49.410156 151.0625 49.707031 C 150.769531 50 150.425781 50.230469 150.042969 50.386719 C 149.65625 50.546875 149.253906 50.628906 148.835938 50.628906 C 148.417969 50.628906 148.015625 50.546875 147.628906 50.386719 C 147.246094 50.230469 146.90625 50 146.609375 49.707031 C 146.3125 49.410156 146.085938 49.070312 145.925781 48.683594 C 145.765625 48.296875 145.6875 47.898438 145.6875 47.480469 C 145.6875 47.0625 145.765625 46.660156 145.925781 46.273438 C 146.085938 45.886719 146.3125 45.546875 146.609375 45.253906 C 146.90625 44.957031 147.246094 44.730469 147.628906 44.570312 C 148.015625 44.410156 148.417969 44.328125 148.835938 44.328125 C 149.253906 44.328125 149.65625 44.410156 150.042969 44.570312 C 150.425781 44.730469 150.769531 44.957031 151.0625 45.253906 C 151.359375 45.546875 151.585938 45.886719 151.746094 46.273438 C 151.90625 46.660156 151.984375 47.0625 151.984375 47.480469 Z M 151.984375 47.480469 " fill-opacity="1" fill-rule="nonzero"/><path fill="#ffffff" d="M 168.78125 47.480469 C 168.78125 47.898438 168.703125 48.296875 168.542969 48.683594 C 168.382812 49.070312 168.15625 49.410156 167.859375 49.707031 C 167.5625 50 167.222656 50.230469 166.839844 50.386719 C 166.453125 50.546875 166.050781 50.628906 165.632812 50.628906 C 165.214844 50.628906 164.8125 50.546875 164.425781 50.386719 C 164.042969 50.230469 163.699219 50 163.40625 49.707031 C 163.109375 49.410156 162.882812 49.070312 162.722656 48.683594 C 162.5625 48.296875 162.484375 47.898438 162.484375 47.480469 C 162.484375 47.0625 162.5625 46.660156 162.722656 46.273438 C 162.882812 45.886719 163.109375 45.546875 163.40625 45.253906 C 163.699219 44.957031 164.042969 44.730469 164.425781 44.570312 C 164.8125 44.410156 165.214844 44.328125 165.632812 44.328125 C 166.050781 44.328125 166.453125 44.410156 166.839844 44.570312 C 167.222656 44.730469 167.5625 44.957031 167.859375 45.253906 C 168.15625 45.546875 168.382812 45.886719 168.542969 46.273438 C 168.703125 46.660156 168.78125 47.0625 168.78125 47.480469 Z M 168.78125 47.480469 " fill-opacity="1" fill-rule="nonzero"/><path fill="#ffffff" d="M 219.171875 47.480469 C 219.171875 47.898438 219.09375 48.296875 218.933594 48.683594 C 218.773438 49.070312 218.546875 49.410156 218.25 49.707031 C 217.953125 50 217.613281 50.230469 217.226562 50.386719 C 216.84375 50.546875 216.441406 50.628906 216.023438 50.628906 C 215.605469 50.628906 215.203125 50.546875 214.816406 50.386719 C 214.429688 50.230469 214.089844 50 213.796875 49.707031 C 213.5 49.410156 213.273438 49.070312 213.113281 48.683594 C 212.953125 48.296875 212.875 47.898438 212.875 47.480469 C 212.875 47.0625 212.953125 46.660156 213.113281 46.273438 C 213.273438 45.886719 213.5 45.546875 213.796875 45.253906 C 214.089844 44.957031 214.429688 44.730469 214.816406 44.570312 C 215.203125 44.410156 215.605469 44.328125 216.023438 44.328125 C 216.441406 44.328125 216.84375 44.410156 217.226562 44.570312 C 217.613281 44.730469 217.953125 44.957031 218.25 45.253906 C 218.546875 45.546875 218.773438 45.886719 218.933594 46.273438 C 219.09375 46.660156 219.171875 47.0625 219.171875 47.480469 Z M 219.171875 47.480469 " fill-opacity="1" fill-rule="nonzero"/><g fill="#ffffff" fill-opacity="1"><g transform="translate(15.5865, 32.653962)"><g><path d="M 1.820312 -0.996094 L 2.0625 -0.242188 L 2.769531 0.0742188 L 3.253906 0 L 4.03125 0.0742188 L 4.421875 0.0234375 L 5.148438 0.0234375 L 5.925781 -0.21875 L 6.144531 -0.921875 L 6.144531 -1.75 L 6.191406 -2.1875 L 6.121094 -2.695312 L 6.167969 -4.25 L 6.386719 -4.734375 L 6.847656 -5.003906 L 8.257812 -4.808594 L 8.742188 -4.394531 L 9.035156 -3.910156 L 9.230469 -3.472656 L 9.738281 -2.746094 L 10.199219 -1.871094 L 10.46875 -1.503906 L 10.664062 -1.019531 L 10.929688 -0.605469 L 11.464844 -0.171875 L 12.289062 0.046875 L 14.207031 0.0234375 L 14.667969 0.0742188 L 15.472656 0.046875 L 15.933594 -0.171875 L 16.078125 -0.703125 L 15.8125 -1.238281 L 15.519531 -1.578125 L 15.324219 -2.039062 L 14.5 -3.277344 L 14.28125 -3.714844 L 13.503906 -4.980469 L 13.210938 -5.34375 L 13.1875 -5.925781 L 13.40625 -6.460938 L 13.746094 -6.824219 L 14.085938 -7.117188 L 15.035156 -8.816406 L 15.351562 -10.226562 L 15.300781 -11.753906 L 15.226562 -12.242188 L 14.792969 -13.625 L 14.597656 -14.039062 L 14.328125 -14.425781 L 12.945312 -15.882812 L 12.09375 -16.34375 L 11.171875 -16.660156 L 9.789062 -16.976562 L 9.011719 -17 L 8.304688 -16.953125 L 6.847656 -16.953125 L 6.363281 -17.050781 L 5.878906 -17.050781 L 5.441406 -16.929688 L 4.953125 -16.929688 L 4.46875 -17.027344 L 3.933594 -17.050781 L 2.5 -16.929688 L 2.0625 -16.683594 L 1.773438 -16.003906 L 1.796875 -10.445312 L 1.847656 -9.957031 L 1.773438 -8.988281 L 1.796875 -8.453125 L 1.796875 -7.964844 L 1.847656 -7.503906 L 1.796875 -7.042969 L 1.773438 -5.074219 L 1.820312 -4.589844 Z M 6.847656 -8.890625 L 6.363281 -9.15625 L 6.167969 -9.546875 L 6.167969 -11.003906 L 6.121094 -11.414062 L 6.167969 -12.433594 L 6.386719 -12.898438 L 6.898438 -13.089844 L 7.382812 -13.066406 L 8.355469 -13.164062 L 9.035156 -13.019531 L 9.667969 -12.96875 L 10.128906 -12.847656 L 10.734375 -12.09375 L 10.878906 -11.707031 L 10.976562 -11.074219 L 10.90625 -10.347656 L 10.6875 -9.859375 L 10.417969 -9.496094 L 10.152344 -9.277344 L 9.714844 -9.082031 L 9.011719 -8.914062 L 8.550781 -8.890625 L 7.382812 -8.9375 Z M 6.847656 -8.890625 "/></g></g></g><g fill="#ffffff" fill-opacity="1"><g transform="translate(32.439995, 32.653962)"><g><path d="M 0.316406 -0.65625 L 0.4375 -0.144531 L 0.921875 -0.0234375 L 3.058594 -0.0234375 L 3.691406 0.046875 L 4.25 -0.195312 L 4.6875 -0.632812 L 5.101562 -1.457031 L 5.511719 -1.917969 L 6.097656 -2.160156 L 6.582031 -2.113281 L 7.941406 -2.136719 L 8.453125 -2.0625 L 9.011719 -2.136719 L 9.449219 -2.136719 L 9.957031 -2.089844 L 11.097656 -2.136719 L 11.902344 -1.871094 L 12.410156 -1.480469 L 12.53125 -1.042969 L 12.800781 -0.605469 L 13.210938 -0.21875 L 13.84375 0.0234375 L 14.28125 -0.0234375 L 15.132812 0.046875 L 16.636719 0 L 17.074219 -0.144531 L 17.171875 -0.65625 L 17.027344 -1.261719 L 16.855469 -1.699219 L 16.539062 -2.113281 L 16.394531 -2.597656 L 16.152344 -2.964844 L 16.003906 -3.425781 L 15.59375 -4.300781 L 15.421875 -4.761719 L 15.179688 -5.171875 L 14.839844 -6.070312 L 14.574219 -6.460938 L 14.378906 -6.945312 L 14.160156 -7.359375 L 13.988281 -7.84375 L 13.769531 -8.210938 L 13.625 -8.695312 L 13.359375 -9.132812 L 13.164062 -9.546875 L 12.921875 -9.957031 L 12.800781 -10.417969 L 12.3125 -11.269531 L 12.167969 -11.730469 L 11.730469 -12.652344 L 11.609375 -13.042969 L 11.246094 -13.890625 L 10.757812 -14.792969 L 10.371094 -15.714844 L 10.152344 -16.078125 L 10.007812 -16.539062 L 9.570312 -17 L 8.742188 -17.21875 L 7.964844 -16.976562 L 7.503906 -16.539062 L 7.359375 -16.101562 L 6.316406 -13.917969 L 6.046875 -13.480469 L 4.6875 -10.417969 L 4.566406 -10.007812 L 4.300781 -9.570312 L 3.910156 -8.695312 L 3.546875 -8.0625 L 3.375 -7.601562 L 3.035156 -6.96875 L 2.890625 -6.460938 L 2.671875 -6.070312 L 2.5 -5.585938 L 1.820312 -4.324219 L 1.117188 -2.550781 L 0.824219 -2.160156 L 0.605469 -1.675781 Z M 7.820312 -6 L 7.359375 -6.191406 L 7.285156 -6.679688 L 8.257812 -8.890625 L 8.476562 -9.277344 L 8.792969 -9.519531 L 9.082031 -9.328125 L 9.398438 -8.378906 L 9.667969 -7.964844 L 9.761719 -7.578125 L 10.007812 -7.09375 L 10.175781 -6.65625 L 10.128906 -6.21875 L 9.714844 -6.023438 Z M 7.820312 -6 "/></g></g></g><g fill="#ffffff" fill-opacity="1"><g transform="translate(50.070596, 32.653962)"><g><path d="M 1.773438 -0.679688 L 2.015625 -0.21875 L 2.769531 0.046875 L 5.441406 0.0234375 L 5.925781 -0.21875 L 6.242188 -0.972656 L 6.21875 -1.722656 L 6.265625 -2.234375 L 6.191406 -3.277344 L 6.21875 -3.742188 L 6.191406 -4.203125 L 6.242188 -4.710938 L 6.460938 -5.222656 L 7.1875 -5.464844 L 10.976562 -5.488281 L 11.4375 -5.707031 L 11.707031 -6.191406 L 11.683594 -6.726562 L 11.730469 -8.183594 L 11.65625 -8.644531 L 11.414062 -9.15625 L 10.6875 -9.398438 L 6.996094 -9.398438 L 6.4375 -9.59375 L 6.167969 -10.03125 L 6.167969 -11.464844 L 6.242188 -11.972656 L 6.21875 -12.386719 L 6.460938 -12.871094 L 7.164062 -13.113281 L 7.867188 -13.089844 L 8.574219 -13.140625 L 9.761719 -13.066406 L 10.25 -13.113281 L 11.246094 -13.066406 L 11.730469 -13.140625 L 12.191406 -13.359375 L 12.363281 -13.84375 L 12.363281 -14.304688 L 12.410156 -14.792969 L 12.363281 -15.253906 L 12.410156 -15.761719 L 12.363281 -16.273438 L 12.121094 -16.734375 L 11.683594 -16.953125 L 11.097656 -17.027344 L 10.226562 -16.953125 L 9.714844 -16.976562 L 9.203125 -16.953125 L 8.742188 -17 L 8.28125 -16.953125 L 2.476562 -16.953125 L 2.015625 -16.710938 L 1.75 -16.25 L 1.847656 -13.332031 L 1.796875 -12.871094 L 1.773438 -9.421875 L 1.847656 -8.988281 L 1.796875 -8.523438 L 1.796875 -8.039062 L 1.75 -7.503906 L 1.847656 -6.75 L 1.773438 -1.722656 L 1.820312 -1.164062 Z M 1.773438 -0.679688 "/></g></g></g><g fill="#ffffff" fill-opacity="1"><g transform="translate(63.305692, 32.653962)"><g><path d="M 4.664062 -0.753906 L 4.859375 -0.242188 L 5.367188 0 L 5.828125 -0.046875 L 6.316406 0 L 6.777344 -0.046875 L 8.28125 -0.046875 L 8.769531 -0.242188 L 8.960938 -0.730469 L 8.9375 -1.191406 L 8.988281 -1.75 L 8.960938 -2.71875 L 8.890625 -3.132812 L 8.960938 -3.644531 L 9.011719 -5.125 L 8.960938 -5.5625 L 9.035156 -6.582031 L 8.9375 -11.414062 L 9.011719 -11.902344 L 8.960938 -12.433594 L 9.15625 -12.871094 L 9.691406 -13.089844 L 10.105469 -13.113281 L 10.589844 -13.089844 L 11.027344 -13.140625 L 12.363281 -13.113281 L 12.921875 -13.332031 L 13.164062 -13.820312 L 13.113281 -14.328125 L 13.164062 -16.320312 L 12.921875 -16.808594 L 12.433594 -17.050781 L 11.851562 -17 L 11.464844 -17.050781 L 11.003906 -17.050781 L 10.46875 -16.976562 L 9.980469 -16.976562 L 9.496094 -17.027344 L 9.011719 -17.027344 L 8.453125 -16.953125 L 1.214844 -17 L 0.679688 -16.757812 L 0.4375 -16.273438 L 0.414062 -13.84375 L 0.679688 -13.308594 L 1.164062 -13.066406 L 1.796875 -13.140625 L 3.957031 -13.113281 L 4.394531 -12.847656 L 4.640625 -12.386719 L 4.710938 -9.714844 L 4.640625 -8.960938 L 4.6875 -8.5 L 4.640625 -8.015625 L 4.640625 -7.042969 L 4.710938 -6.339844 L 4.613281 -5.609375 L 4.640625 -5.125 L 4.613281 -4.613281 L 4.6875 -3.132812 L 4.640625 -2.648438 Z M 4.664062 -0.753906 "/></g></g></g><g fill="#ffffff" fill-opacity="1"><g transform="translate(76.88077, 32.653962)"><g><path d="M 0.316406 -0.65625 L 0.4375 -0.144531 L 0.921875 -0.0234375 L 3.058594 -0.0234375 L 3.691406 0.046875 L 4.25 -0.195312 L 4.6875 -0.632812 L 5.101562 -1.457031 L 5.511719 -1.917969 L 6.097656 -2.160156 L 6.582031 -2.113281 L 7.941406 -2.136719 L 8.453125 -2.0625 L 9.011719 -2.136719 L 9.449219 -2.136719 L 9.957031 -2.089844 L 11.097656 -2.136719 L 11.902344 -1.871094 L 12.410156 -1.480469 L 12.53125 -1.042969 L 12.800781 -0.605469 L 13.210938 -0.21875 L 13.84375 0.0234375 L 14.28125 -0.0234375 L 15.132812 0.046875 L 16.636719 0 L 17.074219 -0.144531 L 17.171875 -0.65625 L 17.027344 -1.261719 L 16.855469 -1.699219 L 16.539062 -2.113281 L 16.394531 -2.597656 L 16.152344 -2.964844 L 16.003906 -3.425781 L 15.59375 -4.300781 L 15.421875 -4.761719 L 15.179688 -5.171875 L 14.839844 -6.070312 L 14.574219 -6.460938 L 14.378906 -6.945312 L 14.160156 -7.359375 L 13.988281 -7.84375 L 13.769531 -8.210938 L 13.625 -8.695312 L 13.359375 -9.132812 L 13.164062 -9.546875 L 12.921875 -9.957031 L 12.800781 -10.417969 L 12.3125 -11.269531 L 12.167969 -11.730469 L 11.730469 -12.652344 L 11.609375 -13.042969 L 11.246094 -13.890625 L 10.757812 -14.792969 L 10.371094 -15.714844 L 10.152344 -16.078125 L 10.007812 -16.539062 L 9.570312 -17 L 8.742188 -17.21875 L 7.964844 -16.976562 L 7.503906 -16.539062 L 7.359375 -16.101562 L 6.316406 -13.917969 L 6.046875 -13.480469 L 4.6875 -10.417969 L 4.566406 -10.007812 L 4.300781 -9.570312 L 3.910156 -8.695312 L 3.546875 -8.0625 L 3.375 -7.601562 L 3.035156 -6.96875 L 2.890625 -6.460938 L 2.671875 -6.070312 L 2.5 -5.585938 L 1.820312 -4.324219 L 1.117188 -2.550781 L 0.824219 -2.160156 L 0.605469 -1.675781 Z M 7.820312 -6 L 7.359375 -6.191406 L 7.285156 -6.679688 L 8.257812 -8.890625 L 8.476562 -9.277344 L 8.792969 -9.519531 L 9.082031 -9.328125 L 9.398438 -8.378906 L 9.667969 -7.964844 L 9.761719 -7.578125 L 10.007812 -7.09375 L 10.175781 -6.65625 L 10.128906 -6.21875 L 9.714844 -6.023438 Z M 7.820312 -6 "/></g></g></g><g fill="#ffffff" fill-opacity="1"><g transform="translate(94.511372, 32.653962)"><g><path d="M 0.316406 -0.65625 L 0.4375 -0.144531 L 0.921875 -0.0234375 L 3.058594 -0.0234375 L 3.691406 0.046875 L 4.25 -0.195312 L 4.6875 -0.632812 L 5.101562 -1.457031 L 5.511719 -1.917969 L 6.097656 -2.160156 L 6.582031 -2.113281 L 7.941406 -2.136719 L 8.453125 -2.0625 L 9.011719 -2.136719 L 9.449219 -2.136719 L 9.957031 -2.089844 L 11.097656 -2.136719 L 11.902344 -1.871094 L 12.410156 -1.480469 L 12.53125 -1.042969 L 12.800781 -0.605469 L 13.210938 -0.21875 L 13.84375 0.0234375 L 14.28125 -0.0234375 L 15.132812 0.046875 L 16.636719 0 L 17.074219 -0.144531 L 17.171875 -0.65625 L 17.027344 -1.261719 L 16.855469 -1.699219 L 16.539062 -2.113281 L 16.394531 -2.597656 L 16.152344 -2.964844 L 16.003906 -3.425781 L 15.59375 -4.300781 L 15.421875 -4.761719 L 15.179688 -5.171875 L 14.839844 -6.070312 L 14.574219 -6.460938 L 14.378906 -6.945312 L 14.160156 -7.359375 L 13.988281 -7.84375 L 13.769531 -8.210938 L 13.625 -8.695312 L 13.359375 -9.132812 L 13.164062 -9.546875 L 12.921875 -9.957031 L 12.800781 -10.417969 L 12.3125 -11.269531 L 12.167969 -11.730469 L 11.730469 -12.652344 L 11.609375 -13.042969 L 11.246094 -13.890625 L 10.757812 -14.792969 L 10.371094 -15.714844 L 10.152344 -16.078125 L 10.007812 -16.539062 L 9.570312 -17 L 8.742188 -17.21875 L 7.964844 -16.976562 L 7.503906 -16.539062 L 7.359375 -16.101562 L 6.316406 -13.917969 L 6.046875 -13.480469 L 4.6875 -10.417969 L 4.566406 -10.007812 L 4.300781 -9.570312 L 3.910156 -8.695312 L 3.546875 -8.0625 L 3.375 -7.601562 L 3.035156 -6.96875 L 2.890625 -6.460938 L 2.671875 -6.070312 L 2.5 -5.585938 L 1.820312 -4.324219 L 1.117188 -2.550781 L 0.824219 -2.160156 L 0.605469 -1.675781 Z M 7.820312 -6 L 7.359375 -6.191406 L 7.285156 -6.679688 L 8.257812 -8.890625 L 8.476562 -9.277344 L 8.792969 -9.519531 L 9.082031 -9.328125 L 9.398438 -8.378906 L 9.667969 -7.964844 L 9.761719 -7.578125 L 10.007812 -7.09375 L 10.175781 -6.65625 L 10.128906 -6.21875 L 9.714844 -6.023438 Z M 7.820312 -6 "/></g></g></g><g fill="#ffffff" fill-opacity="1"><g transform="translate(112.141973, 32.653962)"><g><path d="M 1.871094 -0.777344 L 2.039062 -0.242188 L 2.527344 0 L 2.988281 0.0234375 L 3.984375 -0.046875 L 4.492188 0 L 5.222656 0 L 5.976562 -0.242188 L 6.144531 -0.703125 L 6.191406 -1.214844 L 6.097656 -1.722656 L 6.167969 -2.769531 L 6.121094 -4.273438 L 6.339844 -4.761719 L 6.824219 -5.003906 L 7.261719 -5.003906 L 7.699219 -5.027344 L 8.304688 -4.832031 L 8.695312 -4.421875 L 9.328125 -3.570312 L 9.496094 -3.109375 L 10.175781 -1.894531 L 10.492188 -1.433594 L 10.710938 -1.019531 L 11.003906 -0.632812 L 11.488281 -0.195312 L 12.09375 -0.046875 L 12.96875 0 L 13.503906 -0.046875 L 13.988281 0 L 14.960938 0 L 15.496094 -0.046875 L 16.003906 -0.171875 L 16.101562 -0.679688 L 15.785156 -1.289062 L 15.007812 -2.476562 L 14.792969 -2.890625 L 14.5 -3.328125 L 14.257812 -3.765625 L 13.941406 -4.152344 L 13.210938 -5.417969 L 13.140625 -6 L 13.40625 -6.507812 L 14.085938 -7.164062 L 14.378906 -7.578125 L 14.546875 -8.039062 L 14.816406 -8.476562 L 14.984375 -8.890625 L 15.253906 -9.8125 L 15.277344 -11.730469 L 15.15625 -12.191406 L 15.082031 -12.652344 L 14.960938 -13.140625 L 14.304688 -14.476562 L 13.964844 -14.839844 L 13.746094 -15.203125 L 12.53125 -16.125 L 11.683594 -16.5625 L 9.667969 -16.976562 L 9.058594 -17.027344 L 8.355469 -17 L 7.820312 -17.027344 L 7.335938 -16.976562 L 6.800781 -17.027344 L 6.386719 -16.976562 L 4.929688 -17.027344 L 4.46875 -16.953125 L 3.472656 -17.050781 L 3.011719 -16.976562 L 2.476562 -17 L 2.015625 -16.78125 L 1.820312 -16.273438 L 1.75 -9.472656 L 1.820312 -8.769531 L 1.820312 -7.554688 L 1.773438 -7.042969 L 1.75 -6.121094 L 1.820312 -5.585938 L 1.75 -4.589844 L 1.847656 -3.183594 L 1.796875 -2.671875 Z M 6.824219 -8.9375 L 6.410156 -9.15625 L 6.167969 -9.667969 L 6.097656 -12.386719 L 6.386719 -12.871094 L 6.875 -13.113281 L 7.261719 -13.140625 L 8.597656 -13.113281 L 9.714844 -12.96875 L 10.46875 -12.507812 L 10.710938 -12.144531 L 10.878906 -11.753906 L 10.929688 -11.050781 L 10.855469 -10.394531 L 10.664062 -9.910156 L 10.394531 -9.496094 L 10.105469 -9.203125 L 9.738281 -9.035156 L 7.84375 -8.863281 L 7.359375 -8.9375 Z M 6.824219 -8.9375 "/></g></g></g><g fill="#ffffff" fill-opacity="1"><g transform="translate(64.092397, 49.889657)"><g><path d="M 0.867188 -0.335938 L 0.972656 -0.128906 L 1.339844 0.0117188 L 5.433594 -0.0117188 L 5.757812 -0.128906 L 5.886719 -0.335938 L 5.863281 -0.589844 L 5.875 -0.820312 L 5.898438 -1.027344 L 5.863281 -1.285156 L 5.898438 -1.503906 L 5.746094 -1.757812 L 5.5625 -1.875 L 5.308594 -1.839844 L 3.273438 -1.863281 L 3.03125 -1.964844 L 2.960938 -2.21875 L 2.972656 -2.648438 L 2.9375 -2.867188 L 2.949219 -3.121094 L 2.925781 -3.351562 L 2.949219 -3.597656 L 2.9375 -4.175781 L 2.972656 -4.5 L 2.9375 -4.753906 L 2.972656 -4.996094 L 2.9375 -6.800781 L 2.960938 -7.054688 L 2.9375 -7.621094 L 2.820312 -7.96875 L 2.519531 -8.105469 L 1.316406 -8.082031 L 0.984375 -7.957031 L 0.832031 -7.644531 L 0.902344 -7.042969 L 0.878906 -6.824219 L 0.84375 -6.578125 L 0.878906 -6.347656 L 0.902344 -6.128906 L 0.867188 -5.875 L 0.878906 -5.65625 L 0.855469 -5.421875 L 0.890625 -5.179688 L 0.855469 -4.972656 L 0.878906 -4.742188 L 0.84375 -4.519531 L 0.878906 -4.023438 L 0.84375 -3.804688 L 0.878906 -3.34375 L 0.84375 -3.109375 L 0.855469 -2.648438 L 0.878906 -2.441406 L 0.867188 -1.027344 L 0.890625 -0.796875 L 0.84375 -0.578125 Z M 0.867188 -0.335938 "/></g></g></g><g fill="#ffffff" fill-opacity="1"><g transform="translate(70.312371, 49.889657)"><g><path d="M 4.324219 0.140625 L 4.972656 0.128906 L 5.667969 0.0351562 L 6.535156 -0.253906 L 6.914062 -0.460938 L 7.089844 -0.601562 L 7.308594 -0.707031 L 7.632812 -0.984375 L 7.78125 -1.191406 L 7.945312 -1.351562 L 8.453125 -2.128906 L 8.625 -2.566406 L 8.71875 -3.007812 L 8.730469 -3.214844 L 8.789062 -3.445312 L 8.800781 -3.6875 L 8.847656 -4.023438 L 8.8125 -4.601562 L 8.730469 -5.078125 L 8.441406 -5.945312 L 8.222656 -6.371094 L 7.96875 -6.71875 L 7.644531 -7.078125 L 7.308594 -7.367188 L 7.042969 -7.550781 L 6.695312 -7.703125 L 6.523438 -7.828125 L 5.632812 -8.105469 L 4.960938 -8.222656 L 4.648438 -8.234375 L 3.421875 -8.058594 L 2.554688 -7.734375 L 2.382812 -7.609375 L 2.175781 -7.503906 L 1.78125 -7.214844 L 1.214844 -6.554688 L 0.855469 -5.945312 L 0.683594 -5.503906 L 0.484375 -4.613281 L 0.449219 -3.675781 L 0.484375 -3.433594 L 0.542969 -3.226562 L 0.566406 -3.007812 L 0.671875 -2.566406 L 1.203125 -1.515625 L 1.339844 -1.375 L 1.492188 -1.191406 L 1.664062 -1.027344 L 1.792969 -0.878906 L 2.175781 -0.578125 L 3.074219 -0.117188 L 3.410156 0 L 3.664062 0.0234375 L 4.082031 0.117188 Z M 4.972656 -1.90625 L 4.335938 -1.90625 L 4.082031 -1.941406 L 3.664062 -2.117188 L 3.480469 -2.21875 L 3.167969 -2.476562 L 3.019531 -2.636719 L 2.855469 -2.855469 L 2.796875 -3.042969 L 2.695312 -3.25 L 2.601562 -3.675781 L 2.601562 -4.382812 L 2.660156 -4.589844 L 2.695312 -4.808594 L 2.785156 -5.019531 L 2.855469 -5.226562 L 3.132812 -5.597656 L 3.710938 -5.988281 L 3.863281 -6.046875 L 4.3125 -6.164062 L 4.636719 -6.1875 L 5.191406 -6.117188 L 5.398438 -6.070312 L 5.609375 -5.976562 L 5.96875 -5.722656 L 6.417969 -5.25 L 6.554688 -4.808594 L 6.660156 -4.589844 L 6.695312 -4.382812 L 6.671875 -3.675781 L 6.578125 -3.25 L 6.5 -3.042969 L 6.371094 -2.832031 L 6.300781 -2.660156 L 6.140625 -2.476562 L 5.585938 -2.09375 L 5.378906 -2.035156 L 5.203125 -1.953125 Z M 4.972656 -1.90625 "/></g></g></g><g fill="#ffffff" fill-opacity="1"><g transform="translate(79.584523, 49.889657)"><g><path d="M 4.230469 0.140625 L 4.53125 0.148438 L 5.15625 0.09375 L 5.386719 0.046875 L 5.609375 0.0351562 L 5.804688 -0.0234375 L 6.660156 -0.394531 L 6.824219 -0.53125 L 7.203125 -0.773438 L 7.539062 -1.132812 L 7.910156 -1.675781 L 8.175781 -2.207031 L 8.324219 -2.707031 L 8.335938 -2.925781 L 8.40625 -3.15625 L 8.453125 -4.035156 L 8.417969 -4.265625 L 8.28125 -4.5 L 7.945312 -4.601562 L 5.042969 -4.601562 L 4.683594 -4.476562 L 4.578125 -4.253906 L 4.554688 -3.386719 L 4.601562 -3.167969 L 4.671875 -2.972656 L 4.890625 -2.867188 L 5.109375 -2.867188 L 5.320312 -2.84375 L 6.011719 -2.878906 L 6.175781 -2.753906 L 6.222656 -2.554688 L 6.128906 -2.371094 L 5.792969 -2.046875 L 5.609375 -1.953125 L 5.167969 -1.816406 L 4.9375 -1.78125 L 4.601562 -1.769531 L 4.242188 -1.792969 L 4.035156 -1.839844 L 3.828125 -1.917969 L 3.410156 -2.140625 L 3.0625 -2.417969 L 2.9375 -2.613281 L 2.84375 -2.808594 L 2.71875 -3.019531 L 2.636719 -3.238281 L 2.566406 -4.394531 L 2.695312 -4.808594 L 2.742188 -5.042969 L 2.914062 -5.46875 L 3.214844 -5.792969 L 3.597656 -6.058594 L 3.792969 -6.152344 L 4.242188 -6.300781 L 4.566406 -6.3125 L 5.167969 -6.246094 L 5.386719 -6.1875 L 5.96875 -5.828125 L 6.082031 -5.644531 L 6.335938 -5.457031 L 6.589844 -5.34375 L 7.722656 -5.34375 L 7.945312 -5.367188 L 8.140625 -5.433594 L 8.222656 -5.6875 L 7.851562 -6.546875 L 7.691406 -6.707031 L 7.402344 -7.078125 L 7.066406 -7.414062 L 6.277344 -7.898438 L 6.023438 -7.96875 L 5.839844 -8.046875 L 5.609375 -8.082031 L 5.355469 -8.152344 L 4.210938 -8.210938 L 3.503906 -8.09375 L 2.625 -7.78125 L 2.417969 -7.679688 L 1.839844 -7.285156 L 1.492188 -6.960938 L 1.339844 -6.765625 L 1.226562 -6.578125 L 1.050781 -6.417969 L 0.925781 -6.199219 L 0.566406 -5.320312 L 0.554688 -5.109375 L 0.429688 -4.601562 L 0.449219 -4.023438 L 0.429688 -3.699219 L 0.4375 -3.457031 L 0.636719 -2.566406 L 0.878906 -1.929688 L 1.007812 -1.710938 L 1.421875 -1.191406 L 1.746094 -0.855469 L 2.484375 -0.359375 L 2.695312 -0.253906 L 3.34375 -0.0234375 L 3.988281 0.117188 Z M 4.230469 0.140625 "/></g></g></g><g fill="#ffffff" fill-opacity="1"><g transform="translate(88.440464, 49.889657)"><g><path d="M 0.554688 -0.335938 L 0.671875 -0.09375 L 0.902344 -0.0117188 L 4.335938 0.0117188 L 4.554688 -0.105469 L 4.683594 -0.3125 L 4.683594 -0.566406 L 4.660156 -0.773438 L 4.695312 -1.480469 L 4.53125 -1.675781 L 3.757812 -1.917969 L 3.632812 -2.152344 L 3.652344 -3.097656 L 3.609375 -3.5625 L 3.652344 -4.046875 L 3.632812 -4.394531 L 3.652344 -4.753906 L 3.632812 -4.972656 L 3.652344 -5.203125 L 3.632812 -5.445312 L 3.632812 -5.933594 L 3.757812 -6.140625 L 3.976562 -6.265625 L 4.230469 -6.277344 L 4.453125 -6.40625 L 4.578125 -6.625 L 4.578125 -7.308594 L 4.601562 -7.515625 L 4.578125 -7.746094 L 4.488281 -7.980469 L 4.117188 -8.082031 L 2.648438 -8.09375 L 2.394531 -8.070312 L 1.6875 -8.082031 L 1.46875 -8.070312 L 1.019531 -8.09375 L 0.761719 -7.980469 L 0.636719 -7.734375 L 0.636719 -7.515625 L 0.613281 -7.320312 L 0.613281 -7.066406 L 0.636719 -6.835938 L 0.636719 -6.613281 L 0.75 -6.394531 L 1.457031 -6.152344 L 1.605469 -5.945312 L 1.574219 -4.960938 L 1.585938 -4.765625 L 1.617188 -4.5 L 1.605469 -4.023438 L 1.585938 -3.792969 L 1.628906 -3.34375 L 1.574219 -3.109375 L 1.617188 -2.613281 L 1.597656 -2.164062 L 1.480469 -1.90625 L 0.71875 -1.664062 L 0.578125 -1.445312 L 0.554688 -1.226562 Z M 0.554688 -0.335938 "/></g></g></g><g fill="#ffffff" fill-opacity="1"><g transform="translate(93.689284, 49.889657)"><g><path d="M 3.351562 0.09375 L 3.6875 0.128906 L 4.058594 0.117188 L 5.191406 -0.105469 L 5.792969 -0.429688 L 6.164062 -0.683594 L 6.488281 -1.050781 L 6.71875 -1.421875 L 6.8125 -1.628906 L 6.878906 -1.863281 L 6.914062 -2.070312 L 6.925781 -2.785156 L 6.890625 -3.019531 L 6.835938 -3.238281 L 6.601562 -3.664062 L 6.324219 -4.023438 L 6.128906 -4.1875 L 5.515625 -4.464844 L 4.566406 -4.695312 L 3.398438 -4.84375 L 2.914062 -5.019531 L 2.742188 -5.109375 L 2.554688 -5.296875 L 2.542969 -5.609375 L 2.578125 -5.910156 L 2.707031 -6.070312 L 2.902344 -6.222656 L 3.0625 -6.289062 L 3.273438 -6.335938 L 4.011719 -6.359375 L 4.265625 -6.265625 L 4.441406 -6.128906 L 4.820312 -5.722656 L 5.179688 -5.609375 L 5.945312 -5.585938 L 6.152344 -5.609375 L 6.371094 -5.585938 L 6.589844 -5.722656 L 6.695312 -5.945312 L 6.601562 -6.394531 L 6.417969 -6.8125 L 6.265625 -6.996094 L 6.152344 -7.179688 L 6 -7.355469 L 5.261719 -7.863281 L 4.625 -8.082031 L 4.382812 -8.128906 L 4.175781 -8.152344 L 3.921875 -8.210938 L 3.273438 -8.199219 L 2.359375 -8.011719 L 2.152344 -7.933594 L 1.964844 -7.816406 L 1.78125 -7.746094 L 1.550781 -7.609375 L 1.386719 -7.457031 L 1.179688 -7.320312 L 1.050781 -7.125 L 0.902344 -6.972656 L 0.820312 -6.765625 L 0.707031 -6.578125 L 0.542969 -5.910156 L 0.554688 -5.132812 L 0.636719 -4.808594 L 0.785156 -4.40625 L 1.074219 -4.023438 L 1.398438 -3.722656 L 1.804688 -3.480469 L 2.464844 -3.261719 L 2.878906 -3.167969 L 3.828125 -3.097656 L 4.035156 -3.0625 L 4.265625 -3.054688 L 4.683594 -2.878906 L 4.84375 -2.742188 L 4.902344 -2.441406 L 4.832031 -2.140625 L 4.648438 -1.976562 L 4.464844 -1.875 L 4.035156 -1.746094 L 3.710938 -1.734375 L 3.363281 -1.757812 L 3.097656 -1.828125 L 2.925781 -1.90625 L 2.71875 -2.035156 L 2.542969 -2.195312 L 2.371094 -2.429688 L 2.140625 -2.519531 L 1.261719 -2.542969 L 1.027344 -2.519531 L 0.796875 -2.53125 L 0.566406 -2.429688 L 0.484375 -2.183594 L 0.507812 -1.929688 L 0.554688 -1.722656 L 0.738281 -1.261719 L 1.027344 -0.902344 L 1.363281 -0.566406 L 1.5625 -0.4375 L 2.394531 -0.0585938 L 2.648438 -0.0234375 L 2.867188 0.0585938 Z M 3.351562 0.09375 "/></g></g></g><g fill="#ffffff" fill-opacity="1"><g transform="translate(101.06538, 49.889657)"><g><path d="M 2.21875 -0.359375 L 2.3125 -0.117188 L 2.554688 0 L 2.773438 -0.0234375 L 3.007812 0 L 3.226562 -0.0234375 L 3.941406 -0.0234375 L 4.175781 -0.117188 L 4.265625 -0.347656 L 4.253906 -0.566406 L 4.277344 -0.832031 L 4.265625 -1.296875 L 4.230469 -1.492188 L 4.265625 -1.734375 L 4.289062 -2.441406 L 4.265625 -2.648438 L 4.300781 -3.132812 L 4.253906 -5.433594 L 4.289062 -5.667969 L 4.265625 -5.921875 L 4.359375 -6.128906 L 4.613281 -6.234375 L 4.808594 -6.246094 L 5.042969 -6.234375 L 5.25 -6.257812 L 5.886719 -6.246094 L 6.152344 -6.347656 L 6.265625 -6.578125 L 6.246094 -6.824219 L 6.265625 -7.769531 L 6.152344 -8.003906 L 5.921875 -8.117188 L 5.644531 -8.09375 L 5.457031 -8.117188 L 5.238281 -8.117188 L 4.984375 -8.082031 L 4.753906 -8.082031 L 4.519531 -8.105469 L 4.289062 -8.105469 L 4.023438 -8.070312 L 0.578125 -8.09375 L 0.324219 -7.980469 L 0.207031 -7.746094 L 0.195312 -6.589844 L 0.324219 -6.335938 L 0.554688 -6.222656 L 0.855469 -6.257812 L 1.886719 -6.246094 L 2.09375 -6.117188 L 2.207031 -5.898438 L 2.242188 -4.625 L 2.207031 -4.265625 L 2.230469 -4.046875 L 2.207031 -3.816406 L 2.207031 -3.351562 L 2.242188 -3.019531 L 2.195312 -2.671875 L 2.207031 -2.441406 L 2.195312 -2.195312 L 2.230469 -1.492188 L 2.207031 -1.261719 Z M 2.21875 -0.359375 "/></g></g></g><g fill="#ffffff" fill-opacity="1"><g transform="translate(107.528136, 49.889657)"><g><path d="M 0.554688 -0.335938 L 0.671875 -0.09375 L 0.902344 -0.0117188 L 4.335938 0.0117188 L 4.554688 -0.105469 L 4.683594 -0.3125 L 4.683594 -0.566406 L 4.660156 -0.773438 L 4.695312 -1.480469 L 4.53125 -1.675781 L 3.757812 -1.917969 L 3.632812 -2.152344 L 3.652344 -3.097656 L 3.609375 -3.5625 L 3.652344 -4.046875 L 3.632812 -4.394531 L 3.652344 -4.753906 L 3.632812 -4.972656 L 3.652344 -5.203125 L 3.632812 -5.445312 L 3.632812 -5.933594 L 3.757812 -6.140625 L 3.976562 -6.265625 L 4.230469 -6.277344 L 4.453125 -6.40625 L 4.578125 -6.625 L 4.578125 -7.308594 L 4.601562 -7.515625 L 4.578125 -7.746094 L 4.488281 -7.980469 L 4.117188 -8.082031 L 2.648438 -8.09375 L 2.394531 -8.070312 L 1.6875 -8.082031 L 1.46875 -8.070312 L 1.019531 -8.09375 L 0.761719 -7.980469 L 0.636719 -7.734375 L 0.636719 -7.515625 L 0.613281 -7.320312 L 0.613281 -7.066406 L 0.636719 -6.835938 L 0.636719 -6.613281 L 0.75 -6.394531 L 1.457031 -6.152344 L 1.605469 -5.945312 L 1.574219 -4.960938 L 1.585938 -4.765625 L 1.617188 -4.5 L 1.605469 -4.023438 L 1.585938 -3.792969 L 1.628906 -3.34375 L 1.574219 -3.109375 L 1.617188 -2.613281 L 1.597656 -2.164062 L 1.480469 -1.90625 L 0.71875 -1.664062 L 0.578125 -1.445312 L 0.554688 -1.226562 Z M 0.554688 -0.335938 "/></g></g></g><g fill="#ffffff" fill-opacity="1"><g transform="translate(112.776956, 49.889657)"><g><path d="M 4.253906 0.117188 L 4.949219 0.148438 L 6.070312 -0.0820312 L 6.707031 -0.359375 L 6.878906 -0.472656 L 7.089844 -0.601562 L 7.285156 -0.738281 L 7.433594 -0.890625 L 7.5625 -1.085938 L 7.757812 -1.238281 L 8.105469 -1.839844 L 8.210938 -2.046875 L 8.269531 -2.265625 L 8.347656 -2.496094 L 8.382812 -2.71875 L 8.3125 -2.925781 L 8.023438 -3.054688 L 6.789062 -3.0625 L 6.535156 -2.949219 L 6.300781 -2.730469 L 6.210938 -2.53125 L 5.769531 -2.058594 L 5.378906 -1.863281 L 5.144531 -1.792969 L 4.902344 -1.769531 L 4.253906 -1.78125 L 3.632812 -2.011719 L 3.410156 -2.117188 L 3.261719 -2.277344 L 2.832031 -2.832031 L 2.742188 -3.03125 L 2.601562 -3.480469 L 2.566406 -4.023438 L 2.578125 -4.394531 L 2.660156 -4.601562 L 2.671875 -4.832031 L 2.742188 -5.042969 L 2.9375 -5.457031 L 3.226562 -5.816406 L 3.609375 -6.09375 L 3.828125 -6.1875 L 4.230469 -6.300781 L 4.949219 -6.277344 L 5.386719 -6.199219 L 5.632812 -6.117188 L 5.96875 -5.839844 L 6.140625 -5.65625 L 6.246094 -5.457031 L 6.453125 -5.238281 L 6.707031 -5.132812 L 7.875 -5.109375 L 8.105469 -5.132812 L 8.292969 -5.238281 L 8.359375 -5.480469 L 8.269531 -5.710938 L 8.234375 -5.921875 L 8.046875 -6.359375 L 7.621094 -6.949219 L 7.019531 -7.492188 L 6.765625 -7.667969 L 6.105469 -7.96875 L 5.65625 -8.09375 L 5.078125 -8.175781 L 4.023438 -8.175781 L 3.828125 -8.152344 L 3.609375 -8.082031 L 3.15625 -7.992188 L 2.9375 -7.910156 L 2.765625 -7.804688 L 2.554688 -7.722656 L 1.746094 -7.203125 L 1.605469 -7.019531 L 1.296875 -6.730469 L 1.15625 -6.535156 L 0.625 -5.492188 L 0.417969 -4.046875 L 0.460938 -3.675781 L 0.460938 -3.214844 L 0.578125 -2.765625 L 0.671875 -2.542969 L 0.707031 -2.335938 L 0.820312 -2.128906 L 0.902344 -1.929688 L 1.363281 -1.261719 L 1.78125 -0.855469 L 1.976562 -0.726562 L 2.152344 -0.589844 L 2.9375 -0.160156 L 3.167969 -0.0820312 L 3.34375 -0.0351562 L 3.585938 0.046875 L 3.828125 0.0703125 L 4.035156 0.117188 Z M 4.253906 0.117188 "/></g></g></g><g fill="#ffffff" fill-opacity="1"><g transform="translate(121.59822, 49.889657)"><g><path d="M 3.351562 0.09375 L 3.6875 0.128906 L 4.058594 0.117188 L 5.191406 -0.105469 L 5.792969 -0.429688 L 6.164062 -0.683594 L 6.488281 -1.050781 L 6.71875 -1.421875 L 6.8125 -1.628906 L 6.878906 -1.863281 L 6.914062 -2.070312 L 6.925781 -2.785156 L 6.890625 -3.019531 L 6.835938 -3.238281 L 6.601562 -3.664062 L 6.324219 -4.023438 L 6.128906 -4.1875 L 5.515625 -4.464844 L 4.566406 -4.695312 L 3.398438 -4.84375 L 2.914062 -5.019531 L 2.742188 -5.109375 L 2.554688 -5.296875 L 2.542969 -5.609375 L 2.578125 -5.910156 L 2.707031 -6.070312 L 2.902344 -6.222656 L 3.0625 -6.289062 L 3.273438 -6.335938 L 4.011719 -6.359375 L 4.265625 -6.265625 L 4.441406 -6.128906 L 4.820312 -5.722656 L 5.179688 -5.609375 L 5.945312 -5.585938 L 6.152344 -5.609375 L 6.371094 -5.585938 L 6.589844 -5.722656 L 6.695312 -5.945312 L 6.601562 -6.394531 L 6.417969 -6.8125 L 6.265625 -6.996094 L 6.152344 -7.179688 L 6 -7.355469 L 5.261719 -7.863281 L 4.625 -8.082031 L 4.382812 -8.128906 L 4.175781 -8.152344 L 3.921875 -8.210938 L 3.273438 -8.199219 L 2.359375 -8.011719 L 2.152344 -7.933594 L 1.964844 -7.816406 L 1.78125 -7.746094 L 1.550781 -7.609375 L 1.386719 -7.457031 L 1.179688 -7.320312 L 1.050781 -7.125 L 0.902344 -6.972656 L 0.820312 -6.765625 L 0.707031 -6.578125 L 0.542969 -5.910156 L 0.554688 -5.132812 L 0.636719 -4.808594 L 0.785156 -4.40625 L 1.074219 -4.023438 L 1.398438 -3.722656 L 1.804688 -3.480469 L 2.464844 -3.261719 L 2.878906 -3.167969 L 3.828125 -3.097656 L 4.035156 -3.0625 L 4.265625 -3.054688 L 4.683594 -2.878906 L 4.84375 -2.742188 L 4.902344 -2.441406 L 4.832031 -2.140625 L 4.648438 -1.976562 L 4.464844 -1.875 L 4.035156 -1.746094 L 3.710938 -1.734375 L 3.363281 -1.757812 L 3.097656 -1.828125 L 2.925781 -1.90625 L 2.71875 -2.035156 L 2.542969 -2.195312 L 2.371094 -2.429688 L 2.140625 -2.519531 L 1.261719 -2.542969 L 1.027344 -2.519531 L 0.796875 -2.53125 L 0.566406 -2.429688 L 0.484375 -2.183594 L 0.507812 -1.929688 L 0.554688 -1.722656 L 0.738281 -1.261719 L 1.027344 -0.902344 L 1.363281 -0.566406 L 1.5625 -0.4375 L 2.394531 -0.0585938 L 2.648438 -0.0234375 L 2.867188 0.0585938 Z M 3.351562 0.09375 "/></g></g></g></svg>